<svg width="62" height="62" viewBox="0 0 62 62" fill="none" xmlns="http://www.w3.org/2000/svg">
<path d="M36.6179 40.9048C33.5586 49.31 24.2649 53.6438 15.8597 50.5845C7.45452 47.5253 3.12077 38.2315 6.18001 29.8263C9.23924 21.4212 18.533 17.0874 26.9382 20.1466C35.3434 23.2059 39.6771 32.4996 36.6179 40.9048Z" stroke="white"/>
<path d="M48.4782 29.6754C45.419 38.0806 36.1252 42.4143 27.7201 39.3551C19.3149 36.2959 14.9811 27.0021 18.0404 18.5969C21.0996 10.1917 30.3933 5.85798 38.7985 8.91722C47.2037 11.9765 51.5375 21.2702 48.4782 29.6754Z" stroke="white"/>
<path d="M50.3457 45.9013C47.2864 54.3065 37.9927 58.6403 29.5875 55.581C21.1823 52.5218 16.8486 43.228 19.9078 34.8228C22.967 26.4177 32.2608 22.0839 40.666 25.1431C49.0712 28.2024 53.4049 37.4961 50.3457 45.9013Z" stroke="white"/>
</svg>
